<svg width="28" height="28" viewBox="0 0 28 28" fill="none" xmlns="http://www.w3.org/2000/svg">
<path d="M15.7299 5.50965L17.4899 9.02965C17.7299 9.51965 18.3699 9.98965 18.9099 10.0796L22.0999 10.6096C24.1399 10.9496 24.6199 12.4296 23.1499 13.8896L20.6699 16.3696C20.2499 16.7896 20.0199 17.5996 20.1499 18.1796L20.8599 21.2496C21.4199 23.6796 20.1299 24.6196 17.9799 23.3496L14.9899 21.5796C14.4499 21.2596 13.5599 21.2596 13.0099 21.5796L10.0199 23.3496C7.87991 24.6196 6.57991 23.6696 7.13991 21.2496L7.84991 18.1796C7.97991 17.5996 7.74991 16.7896 7.32991 16.3696L4.84991 13.8896C3.38991 12.4296 3.85991 10.9496 5.89991 10.6096L9.08991 10.0796C9.61991 9.98965 10.2599 9.51965 10.4999 9.02965L12.2599 5.50965C13.2199 3.59965 14.7799 3.59965 15.7299 5.50965Z" fill="white" stroke="#C8C9CB" stroke-width="1.5" stroke-linecap="round" stroke-linejoin="round"/>
</svg>
