<svg width="56" height="56" viewBox="0 0 56 56" fill="none" xmlns="http://www.w3.org/2000/svg">
<path d="M43.6803 34.44C44.497 32.4566 44.9403 30.3333 44.9403 28C44.9403 26.32 44.6837 24.71 44.2403 23.2166C42.7237 23.5666 41.137 23.7533 39.4803 23.7533C36.0876 23.7569 32.7437 22.9448 29.7306 21.3855C26.7174 19.8261 24.1233 17.5652 22.167 14.7933C20.0742 19.857 16.1263 23.9302 11.1303 26.18C11.037 26.7633 11.037 27.3933 11.037 28C11.037 30.2276 11.4758 32.4335 12.3282 34.4915C13.1807 36.5496 14.4302 38.4197 16.0054 39.9948C19.1867 43.1761 23.5014 44.9633 28.0003 44.9633C30.4503 44.9633 32.807 44.4266 34.9303 43.47C36.2603 46.0133 36.867 47.2733 36.8203 47.2733C32.9937 48.5566 30.0303 49.1866 28.0003 49.1866C22.3537 49.1866 16.9637 46.97 12.997 42.98C10.5843 40.5747 8.79086 37.6203 7.77033 34.37H4.66699V23.7533H7.21033C7.98089 20.0025 9.75248 16.5302 12.3371 13.705C14.9217 10.8798 18.223 8.80691 21.8906 7.70639C25.5581 6.60588 29.4552 6.51876 33.1683 7.45427C36.8814 8.38979 40.272 10.313 42.9803 13.02C45.9208 15.9489 47.9265 19.6842 48.7437 23.7533H51.3337V34.37H51.1937L42.887 42L30.5203 40.6V36.7033H41.7903L43.6803 34.44ZM21.6303 27.4633C22.3303 27.4633 23.007 27.7433 23.497 28.2566C23.9894 28.7531 24.2657 29.424 24.2657 30.1233C24.2657 30.8226 23.9894 31.4935 23.497 31.99C23.007 32.48 22.3303 32.76 21.6303 32.76C20.1603 32.76 18.9703 31.5933 18.9703 30.1233C18.9703 28.6533 20.1603 27.4633 21.6303 27.4633ZM34.347 27.4633C35.817 27.4633 36.9837 28.6533 36.9837 30.1233C36.9837 31.5933 35.817 32.76 34.347 32.76C32.877 32.76 31.687 31.5933 31.687 30.1233C31.687 29.4178 31.9672 28.7412 32.4661 28.2424C32.9649 27.7435 33.6415 27.4633 34.347 27.4633Z" fill="#05422C"/>
</svg>
