<svg width="56" height="56" viewBox="0 0 56 56" fill="none" xmlns="http://www.w3.org/2000/svg">
<path d="M54.5779 23.6469L49.2185 13.3656C48.8448 12.6541 48.2083 12.1166 47.4443 11.8673C46.6803 11.6181 45.8492 11.6769 45.1278 12.0312L39.9435 14.6344H36.1591L28.8528 11.3312C28.1891 11.0184 27.4327 10.9638 26.731 11.1781L15.9247 14.3281L10.8716 11.7906C10.1494 11.442 9.32028 11.3861 8.55784 11.6349C7.79539 11.8836 7.15869 12.4175 6.78097 13.125L1.4216 23.4281C1.22689 23.7867 1.10689 24.1809 1.06883 24.5872C1.03077 24.9934 1.07545 25.4031 1.20016 25.7915C1.32488 26.18 1.52705 26.5392 1.79445 26.8473C2.06186 27.1554 2.38895 27.4062 2.75597 27.5844L8.04972 30.2312L19.906 39.4844C20.2365 39.7587 20.6257 39.9533 21.0435 40.0531L33.731 43.225C33.9666 43.2864 34.2094 43.3159 34.4529 43.3125C35.2646 43.3102 36.0428 42.9879 36.6185 42.4156L44.6685 34.3656H44.756L48.081 30.4062L53.2435 27.825C53.6094 27.6399 53.935 27.3841 54.2016 27.0725C54.4682 26.7609 54.6704 26.3995 54.7966 26.0094C54.9191 25.6208 54.9629 25.2117 54.9253 24.8061C54.8877 24.4004 54.7696 24.0063 54.5779 23.6469ZM43.531 31.6531L34.8904 25.375C34.6628 25.2129 34.3895 25.1276 34.1102 25.1315C33.8309 25.1355 33.5601 25.2284 33.3372 25.3969L30.5372 27.4969C29.5513 28.2319 28.3545 28.6289 27.1247 28.6289C25.895 28.6289 24.6981 28.2319 23.7122 27.4969L22.531 26.6C22.4756 26.5655 22.4302 26.517 22.3995 26.4594C22.3688 26.4018 22.3538 26.3371 22.356 26.2719C22.3508 26.2107 22.3599 26.1492 22.3827 26.0923C22.4055 26.0353 22.4413 25.9844 22.4872 25.9437L31.0403 17.3687C31.1283 17.3008 31.2355 17.2625 31.3466 17.2594H39.4622L45.6747 29.1594L43.531 31.6531ZM3.71847 24.9812C3.69483 24.9252 3.6845 24.8644 3.6883 24.8037C3.69209 24.743 3.70991 24.6839 3.74035 24.6312L9.1216 14.3281C9.16123 14.2594 9.2188 14.2027 9.28816 14.1642C9.35752 14.1256 9.43605 14.1067 9.51535 14.1094C9.57715 14.1007 9.6399 14.1164 9.69035 14.1531L13.9778 16.275L8.18097 27.3656L3.93722 25.2219C3.88492 25.201 3.83805 25.1684 3.80015 25.1267C3.76226 25.0851 3.73433 25.0353 3.71847 24.9812ZM34.781 40.5562C34.727 40.6087 34.6603 40.6463 34.5875 40.6655C34.5147 40.6846 34.4382 40.6847 34.3654 40.6656L21.6779 37.5156L21.5247 37.4281L10.4122 28.7437L16.6247 16.8437L27.4747 13.6937C27.5766 13.669 27.6837 13.6766 27.781 13.7156L30.2529 14.8312C29.8511 14.9882 29.4862 15.2265 29.181 15.5312L20.6279 24.0844C20.3142 24.3928 20.0712 24.7657 19.9157 25.1772C19.7601 25.5887 19.6957 26.0291 19.7269 26.4679C19.7581 26.9067 19.8842 27.3335 20.0963 27.7189C20.3085 28.1043 20.6018 28.439 20.956 28.7L22.1372 29.5969C23.5817 30.6627 25.3296 31.2378 27.1247 31.2378C28.9199 31.2378 30.6678 30.6627 32.1122 29.5969L34.1466 28.0656L41.7372 33.6L34.781 40.5562ZM52.281 25.2C52.2666 25.2574 52.2394 25.3108 52.2016 25.3562C52.1637 25.4017 52.1161 25.438 52.0622 25.4625L47.8185 27.5844L42.0216 16.5156L46.3091 14.3719C46.4111 14.3257 46.5269 14.3203 46.6327 14.357C46.7385 14.3936 46.8262 14.4694 46.8778 14.5687L52.2591 24.8719C52.2893 24.9206 52.3072 24.976 52.311 25.0332C52.3148 25.0904 52.3045 25.1477 52.281 25.2ZM25.7685 46.8781C25.6966 47.1618 25.5334 47.4139 25.3042 47.5957C25.0749 47.7775 24.7923 47.879 24.4997 47.8844L24.1716 47.8406L17.5872 46.1781C17.117 46.0665 16.6813 45.8412 16.3185 45.5219L11.3966 41.2344C11.2422 41.1307 11.1117 40.9955 11.0135 40.8376C10.9154 40.6796 10.8519 40.5027 10.8273 40.3184C10.8027 40.1341 10.8175 39.9467 10.8708 39.7685C10.9241 39.5904 11.0146 39.4256 11.1364 39.2851C11.2582 39.1446 11.4084 39.0316 11.5772 38.9535C11.7459 38.8755 11.9293 38.8341 12.1152 38.8323C12.3012 38.8304 12.4853 38.8681 12.6556 38.9428C12.8259 39.0175 12.9783 39.1276 13.1028 39.2656L18.0466 43.5531C18.0976 43.5951 18.1574 43.625 18.2216 43.6406L24.8279 45.2812C25.1641 45.3687 25.4519 45.586 25.6282 45.8853C25.8045 46.1846 25.8549 46.5417 25.7685 46.8781Z" fill="#05422C"/>
</svg>
