<svg width="32" height="32" viewBox="0 0 32 32" fill="none" xmlns="http://www.w3.org/2000/svg">
<path d="M28.001 28C27.8457 28.0002 27.6926 27.9641 27.5537 27.8946C27.4148 27.8252 27.294 27.7243 27.201 27.6L26.386 26.514C25.6138 25.4846 25.0714 24.3015 24.7954 23.0446C24.5194 21.7877 24.5162 20.4862 24.786 19.228L26.259 12.352C26.469 11.3733 26.4665 10.361 26.2517 9.38335C26.0369 8.40572 25.6148 7.48556 25.014 6.685L24.2 5.6C24.1212 5.49495 24.0639 5.3754 24.0313 5.24819C23.9987 5.12097 23.9915 4.98858 24.01 4.85858C24.0286 4.72858 24.0726 4.60351 24.1395 4.49051C24.2064 4.37751 24.2949 4.2788 24.4 4.2C24.5051 4.12121 24.6246 4.06388 24.7518 4.03129C24.879 3.9987 25.0114 3.99148 25.1414 4.01005C25.2714 4.02863 25.3965 4.07262 25.5095 4.13953C25.6225 4.20644 25.7212 4.29495 25.8 4.4L26.615 5.486C27.387 6.5153 27.9294 7.6982 28.2054 8.95491C28.4814 10.2116 28.4847 11.5129 28.215 12.771L26.741 19.647C26.531 20.6257 26.5335 21.638 26.7483 22.6157C26.9631 23.5933 27.3852 24.5135 27.986 25.314L28.8 26.4C28.9114 26.5485 28.9792 26.7251 28.9959 26.91C29.0127 27.0948 28.9776 27.2807 28.8947 27.4468C28.8117 27.6128 28.6842 27.7526 28.5264 27.8503C28.3685 27.948 28.1866 27.9998 28.001 28ZM23.001 28C22.8457 28.0002 22.6926 27.9641 22.5537 27.8946C22.4148 27.8252 22.294 27.7243 22.201 27.6L21.386 26.514C20.6138 25.4846 20.0714 24.3015 19.7954 23.0446C19.5194 21.7877 19.5162 20.4862 19.786 19.228L21.259 12.352C21.469 11.3733 21.4665 10.361 21.2517 9.38335C21.0369 8.40572 20.6148 7.48556 20.014 6.685L19.2 5.6C19.1212 5.49495 19.0639 5.3754 19.0313 5.24819C18.9987 5.12097 18.9915 4.98858 19.01 4.85858C19.0286 4.72858 19.0726 4.60351 19.1395 4.49051C19.2064 4.37751 19.2949 4.2788 19.4 4.2C19.5051 4.12121 19.6246 4.06388 19.7518 4.03129C19.879 3.9987 20.0114 3.99148 20.1414 4.01005C20.2714 4.02863 20.3965 4.07262 20.5095 4.13953C20.6225 4.20644 20.7212 4.29495 20.8 4.4L21.615 5.486C22.387 6.5153 22.9294 7.6982 23.2054 8.95491C23.4814 10.2116 23.4847 11.5129 23.215 12.771L21.741 19.647C21.531 20.6257 21.5335 21.638 21.7483 22.6157C21.9631 23.5933 22.3852 24.5135 22.986 25.314L23.8 26.4C23.9114 26.5485 23.9792 26.7251 23.9959 26.91C24.0127 27.0948 23.9776 27.2807 23.8947 27.4468C23.8117 27.6128 23.6842 27.7526 23.5264 27.8503C23.3685 27.948 23.1866 27.9998 23.001 28ZM18.001 28C17.8457 28.0002 17.6926 27.9641 17.5537 27.8946C17.4148 27.8252 17.294 27.7243 17.201 27.6L16.386 26.514C15.6138 25.4846 15.0714 24.3015 14.7954 23.0446C14.5194 21.7877 14.5162 20.4862 14.786 19.228L16.259 12.352C16.469 11.3733 16.4665 10.361 16.2517 9.38335C16.0369 8.40572 15.6148 7.48556 15.014 6.685L14.2 5.6C14.1212 5.49495 14.0639 5.3754 14.0313 5.24819C13.9987 5.12097 13.9915 4.98858 14.0101 4.85858C14.0286 4.72858 14.0726 4.60351 14.1395 4.49051C14.2064 4.37751 14.2949 4.2788 14.4 4.2C14.5051 4.12121 14.6246 4.06388 14.7518 4.03129C14.879 3.9987 15.0114 3.99148 15.1414 4.01005C15.2714 4.02863 15.3965 4.07262 15.5095 4.13953C15.6225 4.20644 15.7212 4.29495 15.8 4.4L16.614 5.486C17.3862 6.51522 17.9287 7.69809 18.2049 8.9548C18.4811 10.2115 18.4845 11.5128 18.215 12.771L16.741 19.647C16.531 20.6257 16.5335 21.638 16.7483 22.6157C16.9631 23.5933 17.3852 24.5135 17.986 25.314L18.8 26.4C18.9114 26.5485 18.9792 26.7251 18.9959 26.91C19.0127 27.0948 18.9776 27.2807 18.8947 27.4468C18.8117 27.6128 18.6842 27.7526 18.5264 27.8503C18.3685 27.948 18.1866 27.9998 18.001 28ZM13.001 28C12.8457 28.0002 12.6926 27.9641 12.5537 27.8946C12.4148 27.8252 12.294 27.7243 12.201 27.6L11.386 26.514C10.6138 25.4846 10.0714 24.3015 9.7954 23.0446C9.51939 21.7877 9.51618 20.4862 9.786 19.228L11.259 12.352C11.469 11.3733 11.4665 10.361 11.2517 9.38335C11.0369 8.40572 10.6148 7.48556 10.014 6.685L9.2 5.6C9.12121 5.49495 9.06388 5.3754 9.03129 5.24819C8.99869 5.12097 8.99148 4.98858 9.01005 4.85858C9.02862 4.72858 9.07262 4.60351 9.13953 4.49051C9.20643 4.37751 9.29494 4.2788 9.4 4.2C9.50506 4.12121 9.62461 4.06388 9.75182 4.03129C9.87903 3.9987 10.0114 3.99148 10.1414 4.01005C10.2714 4.02863 10.3965 4.07262 10.5095 4.13953C10.6225 4.20644 10.7212 4.29495 10.8 4.4L11.615 5.486C12.387 6.5153 12.9294 7.6982 13.2054 8.95491C13.4814 10.2116 13.4847 11.5129 13.215 12.771L11.741 19.647C11.531 20.6257 11.5335 21.638 11.7483 22.6157C11.9631 23.5933 12.3852 24.5135 12.986 25.314L13.8 26.4C13.9114 26.5485 13.9792 26.7251 13.9959 26.91C14.0127 27.0948 13.9776 27.2807 13.8947 27.4468C13.8117 27.6128 13.6842 27.7526 13.5264 27.8503C13.3685 27.948 13.1866 27.9998 13.001 28ZM8.001 28C7.84556 28.0003 7.69219 27.9643 7.55313 27.8949C7.41406 27.8254 7.29314 27.7245 7.2 27.6L6.385 26.514C5.61281 25.4846 5.07041 24.3015 4.7944 23.0446C4.51839 21.7877 4.51518 20.4862 4.785 19.228L6.259 12.352C6.46896 11.3733 6.46646 10.361 6.25169 9.38335C6.03691 8.40572 5.61484 7.48556 5.014 6.685L4.2 5.6C4.12121 5.49495 4.06388 5.3754 4.03129 5.24819C3.99869 5.12097 3.99148 4.98858 4.01005 4.85858C4.04756 4.59603 4.18783 4.35913 4.4 4.2C4.61217 4.04087 4.87887 3.97255 5.14142 4.01005C5.40397 4.04756 5.64087 4.18783 5.8 4.4L6.615 5.486C7.38705 6.5153 7.92937 7.6982 8.20538 8.95491C8.48139 10.2116 8.48467 11.5129 8.215 12.771L6.741 19.647C6.53104 20.6257 6.53354 21.638 6.74831 22.6157C6.96309 23.5933 7.38516 24.5135 7.986 25.314L8.8 26.4C8.91138 26.5485 8.97922 26.7251 8.99594 26.91C9.01265 27.0948 8.97758 27.2807 8.89465 27.4468C8.81172 27.6128 8.6842 27.7526 8.52637 27.8503C8.36854 27.948 8.18663 27.9998 8.001 28Z" fill="#9D9EA2" stroke="white"/>
</svg>
