<svg width="23" height="22" viewBox="0 0 23 22" fill="none" xmlns="http://www.w3.org/2000/svg">
<path d="M3.57227 6.81934L11.6664 11.5035L19.7056 6.84681" stroke="#05422C" stroke-width="1.5" stroke-linecap="round" stroke-linejoin="round"/>
<path d="M11.6665 19.8083V11.4941" stroke="#05422C" stroke-width="1.5" stroke-linecap="round" stroke-linejoin="round"/>
<path d="M20.4757 8.40551V13.5939C20.4757 13.6397 20.4757 13.6763 20.4666 13.7222C19.8249 13.163 18.9999 12.833 18.0832 12.833C17.2216 12.833 16.4241 13.1355 15.7916 13.6397C14.9482 14.3089 14.4166 15.3447 14.4166 16.4997C14.4166 17.1872 14.6091 17.838 14.9482 18.388C15.0307 18.5347 15.1316 18.6722 15.2416 18.8005L13.5641 19.7264C12.5191 20.313 10.8141 20.313 9.76907 19.7264L4.87407 17.013C3.76491 16.3989 2.85742 14.8589 2.85742 13.5939V8.40551C2.85742 7.14051 3.76491 5.60053 4.87407 4.98636L9.76907 2.27301C10.8141 1.68634 12.5191 1.68634 13.5641 2.27301L18.4591 4.98636C19.5682 5.60053 20.4757 7.14051 20.4757 8.40551Z" stroke="#05422C" stroke-width="1.5" stroke-linecap="round" stroke-linejoin="round"/>
<path d="M21.7498 16.4997C21.7498 17.5997 21.264 18.5805 20.5032 19.2497C19.8524 19.818 19.009 20.1663 18.0832 20.1663C16.0573 20.1663 14.4165 18.5255 14.4165 16.4997C14.4165 15.3447 14.9482 14.3088 15.7915 13.6397C16.424 13.1355 17.2215 12.833 18.0832 12.833C20.109 12.833 21.7498 14.4738 21.7498 16.4997Z" stroke="#05422C" stroke-width="1.5" stroke-miterlimit="10" stroke-linecap="round" stroke-linejoin="round"/>
<path d="M18.3123 15.3535V16.7285L17.1665 17.416" stroke="#05422C" stroke-width="1.5" stroke-miterlimit="10" stroke-linecap="round" stroke-linejoin="round"/>
</svg>
