<svg width="23" height="22" viewBox="0 0 23 22" fill="none" xmlns="http://www.w3.org/2000/svg">
<path d="M14.0837 1.83301V10.9997C14.0837 12.008 13.2587 12.833 12.2503 12.833H2.16699V6.98467C2.83616 7.78217 3.86285 8.27717 4.99952 8.24967C5.92535 8.23134 6.75949 7.87384 7.38283 7.27801C7.66699 7.03968 7.90535 6.73717 8.08868 6.40717C8.41868 5.848 8.60199 5.18798 8.58366 4.50048C8.55616 3.42798 8.07951 2.48384 7.33701 1.83301H14.0837Z" stroke="#05422C" stroke-width="1.5" stroke-linecap="round" stroke-linejoin="round"/>
<path d="M20.5003 12.833V15.583C20.5003 17.1047 19.272 18.333 17.7503 18.333H16.8337C16.8337 17.3247 16.0087 16.4997 15.0003 16.4997C13.992 16.4997 13.167 17.3247 13.167 18.333H9.50033C9.50033 17.3247 8.67533 16.4997 7.66699 16.4997C6.65866 16.4997 5.83366 17.3247 5.83366 18.333H4.91699C3.39533 18.333 2.16699 17.1047 2.16699 15.583V12.833H12.2503C13.2587 12.833 14.0837 12.008 14.0837 10.9997V4.58301H15.7703C16.4303 4.58301 17.0353 4.94052 17.3653 5.50885L18.9328 8.24967H17.7503C17.2462 8.24967 16.8337 8.66217 16.8337 9.16634V11.9163C16.8337 12.4205 17.2462 12.833 17.7503 12.833H20.5003Z" stroke="#05422C" stroke-width="1.5" stroke-linecap="round" stroke-linejoin="round"/>
<path d="M7.66683 20.1667C8.67935 20.1667 9.50016 19.3459 9.50016 18.3333C9.50016 17.3208 8.67935 16.5 7.66683 16.5C6.65431 16.5 5.8335 17.3208 5.8335 18.3333C5.8335 19.3459 6.65431 20.1667 7.66683 20.1667Z" stroke="#05422C" stroke-width="1.5" stroke-linecap="round" stroke-linejoin="round"/>
<path d="M15.0003 20.1667C16.0128 20.1667 16.8337 19.3459 16.8337 18.3333C16.8337 17.3208 16.0128 16.5 15.0003 16.5C13.9878 16.5 13.167 17.3208 13.167 18.3333C13.167 19.3459 13.9878 20.1667 15.0003 20.1667Z" stroke="#05422C" stroke-width="1.5" stroke-linecap="round" stroke-linejoin="round"/>
<path d="M20.5002 11V12.8333H17.7502C17.246 12.8333 16.8335 12.4208 16.8335 11.9167V9.16667C16.8335 8.6625 17.246 8.25 17.7502 8.25H18.9326L20.5002 11Z" stroke="#05422C" stroke-width="1.5" stroke-linecap="round" stroke-linejoin="round"/>
<path d="M8.58333 4.58366C8.58333 5.68366 8.09751 6.66449 7.33668 7.33366C6.68585 7.90199 5.8425 8.25033 4.91667 8.25033C2.89083 8.25033 1.25 6.60949 1.25 4.58366C1.25 3.42866 1.78167 2.39283 2.625 1.72366C3.2575 1.2195 4.055 0.916992 4.91667 0.916992C6.9425 0.916992 8.58333 2.55783 8.58333 4.58366Z" stroke="#05422C" stroke-width="1.5" stroke-miterlimit="10" stroke-linecap="round" stroke-linejoin="round"/>
<path d="M5.14583 3.4375V4.8125L4 5.5" stroke="#05422C" stroke-width="1.5" stroke-miterlimit="10" stroke-linecap="round" stroke-linejoin="round"/>
</svg>
