<svg width="32" height="32" viewBox="0 0 32 32" fill="none" xmlns="http://www.w3.org/2000/svg">
<path d="M17.3335 3.99967C22.5069 3.99967 26.6669 8.18634 26.6669 13.333C26.6669 17.0663 24.4935 20.253 21.3335 21.7463V27.9997H12.0002V23.9997H10.6669C9.18688 23.9997 8.00022 22.813 8.00022 21.333V17.333H6.00022C5.44022 17.333 5.12022 16.6663 5.44022 16.253L8.00022 12.8797C8.11769 10.4841 9.15252 8.22553 10.8902 6.57227C12.6278 4.91901 14.9351 3.99782 17.3335 3.99967ZM17.3335 1.33301C11.2135 1.33301 6.14688 5.89301 5.41355 11.8663L3.33355 14.6663H3.29355L3.26688 14.7063C2.53355 15.7197 2.44022 17.053 3.01355 18.1597C3.49355 19.0797 4.34688 19.7197 5.33355 19.9197V21.333C5.33355 23.7997 7.04022 25.893 9.33355 26.493V30.6663H24.0002V23.333C27.3335 21.1063 29.3335 17.413 29.3335 13.333C29.3335 6.70634 23.9469 1.33301 17.3335 1.33301ZM23.1069 12.3997L20.4935 13.0797L22.4135 15.0263C22.8802 15.4797 22.8802 16.253 22.4135 16.7197C21.9469 17.1863 21.1735 17.1863 20.7202 16.7197L18.7869 14.7997L18.0935 17.413C17.9335 18.0663 17.2802 18.4263 16.6669 18.2663C16.5116 18.2274 16.3656 18.1582 16.2372 18.0626C16.1089 17.9671 16.0007 17.8471 15.9189 17.7095C15.8371 17.5719 15.7833 17.4195 15.7606 17.2611C15.738 17.1027 15.7469 16.9413 15.7869 16.7863L16.4935 14.173L13.8802 14.8797C13.7252 14.9196 13.5639 14.9286 13.4055 14.9059C13.247 14.8833 13.0946 14.8295 12.9571 14.7477C12.8195 14.6659 12.6995 14.5577 12.6039 14.4293C12.5083 14.3009 12.4391 14.1549 12.4002 13.9997C12.2402 13.3997 12.6135 12.733 13.2535 12.573L15.8669 11.8797L13.9469 9.94634C13.7463 9.71724 13.6403 9.42045 13.6504 9.11611C13.6605 8.81177 13.7859 8.52264 14.0012 8.30732C14.2165 8.092 14.5056 7.96659 14.81 7.95651C15.1143 7.94642 15.4111 8.05242 15.6402 8.25301L17.5869 10.173L18.2669 7.55967C18.4269 6.90634 19.0935 6.53301 19.7202 6.70634C20.3736 6.87967 20.7469 7.53301 20.5736 8.17301L19.8669 10.7997L22.4936 10.093C23.1336 9.91967 23.7869 10.293 23.9602 10.9463C24.1335 11.573 23.7602 12.2397 23.1069 12.3997Z" fill="#9D9EA2" stroke="white" stroke-width="1.6"/>
</svg>
