<svg width="14" height="14" viewBox="0 0 14 14" fill="none" xmlns="http://www.w3.org/2000/svg">
<path d="M12.8337 6.99967V9.91634C12.8337 11.6663 11.667 12.833 9.91699 12.833H4.08366C2.33366 12.833 1.16699 11.6663 1.16699 9.91634V6.99967C1.16699 5.41301 2.12366 4.30467 3.61116 4.11801C3.76283 4.09467 3.92033 4.08301 4.08366 4.08301H9.91699C10.0687 4.08301 10.2145 4.08883 10.3545 4.11217C11.8595 4.28717 12.8337 5.40134 12.8337 6.99967Z" stroke="white" stroke-linecap="round" stroke-linejoin="round"/>
<path d="M10.3547 4.11282C10.2147 4.08949 10.0688 4.08367 9.91716 4.08367H4.08383C3.92049 4.08367 3.76299 4.09533 3.61133 4.11866C3.69299 3.95533 3.80966 3.80366 3.94966 3.66366L5.84549 1.76199C6.64466 0.968659 7.93966 0.968659 8.73883 1.76199L9.75966 2.7945C10.133 3.162 10.3313 3.62866 10.3547 4.11282Z" stroke="white" stroke-linecap="round" stroke-linejoin="round"/>
<path d="M12.8337 7.29199H11.0837C10.442 7.29199 9.91699 7.81699 9.91699 8.45866C9.91699 9.10033 10.442 9.62533 11.0837 9.62533H12.8337" stroke="white" stroke-linecap="round" stroke-linejoin="round"/>
</svg>
