<svg width="15" height="14" viewBox="0 0 15 14" fill="none" xmlns="http://www.w3.org/2000/svg">
<path d="M13.3332 6.99967V9.91634C13.3332 11.6663 12.1665 12.833 10.4165 12.833H4.58317C2.83317 12.833 1.6665 11.6663 1.6665 9.91634V6.99967C1.6665 5.41301 2.62317 4.30467 4.11067 4.11801C4.26234 4.09467 4.41984 4.08301 4.58317 4.08301H10.4165C10.5682 4.08301 10.714 4.08883 10.854 4.11217C12.359 4.28717 13.3332 5.40134 13.3332 6.99967Z" stroke="#05422C" stroke-linecap="round" stroke-linejoin="round"/>
<path d="M10.8551 4.11282C10.7151 4.08949 10.5693 4.08367 10.4176 4.08367H4.58432C4.42098 4.08367 4.26348 4.09533 4.11182 4.11866C4.19348 3.95533 4.31015 3.80366 4.45015 3.66366L6.34598 1.76199C7.14515 0.968659 8.44015 0.968659 9.23932 1.76199L10.2601 2.7945C10.6335 3.162 10.8318 3.62866 10.8551 4.11282Z" stroke="#05422C" stroke-linecap="round" stroke-linejoin="round"/>
<path d="M13.3332 7.29199H11.5832C10.9415 7.29199 10.4165 7.81699 10.4165 8.45866C10.4165 9.10033 10.9415 9.62533 11.5832 9.62533H13.3332" stroke="#05422C" stroke-linecap="round" stroke-linejoin="round"/>
</svg>
