<svg width="56" height="56" viewBox="0 0 56 56" fill="none" xmlns="http://www.w3.org/2000/svg">
<path d="M48.2815 8.76189C47.9602 8.26851 47.521 7.86295 47.0036 7.58186C46.4862 7.30077 45.907 7.153 45.3182 7.15189H35.0282C34.3599 7.14873 33.705 7.33862 33.142 7.69873C32.5791 8.05885 32.1321 8.57387 31.8548 9.18189L28.0002 17.4652L24.1268 9.18189C23.8496 8.57387 23.4026 8.05885 22.8397 7.69873C22.2767 7.33862 21.6218 7.14873 20.9535 7.15189H10.6682C10.0797 7.15449 9.50129 7.30544 8.98658 7.59079C8.47186 7.87615 8.0374 8.28669 7.7234 8.78445C7.40939 9.2822 7.22597 9.85111 7.1901 10.4385C7.15423 11.026 7.26707 11.613 7.51818 12.1452L16.2215 30.8586C15.5198 32.4875 15.1547 34.2416 15.1482 36.0152C15.1482 39.4188 16.5003 42.683 18.907 45.0898C21.3137 47.4965 24.5779 48.8486 27.9815 48.8486C31.3851 48.8486 34.6493 47.4965 37.056 45.0898C39.4628 42.683 40.8148 39.4188 40.8148 36.0152C40.8197 34.2479 40.4541 32.4992 39.7415 30.8819L48.4915 12.1452C48.7407 11.6083 48.852 11.0177 48.8153 10.4269C48.7786 9.83617 48.5952 9.26388 48.2815 8.76189ZM9.61818 11.1652C9.53619 10.9833 9.49972 10.7841 9.51192 10.5849C9.52411 10.3857 9.58461 10.1925 9.68818 10.0219C9.79263 9.85669 9.93737 9.72076 10.1088 9.62688C10.2802 9.533 10.4727 9.48426 10.6682 9.48523H20.9582C21.1829 9.48444 21.4032 9.54766 21.5932 9.66749C21.7833 9.78732 21.9353 9.95881 22.0315 10.1619L28.1215 23.1819H27.9815C25.9676 23.1854 23.9828 23.6624 22.1872 24.5744C20.3916 25.4864 18.8356 26.8078 17.6448 28.4319L9.61818 11.1652ZM27.9815 46.5152C25.9048 46.5152 23.8747 45.8994 22.148 44.7457C20.4213 43.5919 19.0755 41.952 18.2808 40.0334C17.4861 38.1148 17.2781 36.0036 17.6833 33.9668C18.0884 31.93 19.0884 30.0591 20.5569 28.5906C22.0253 27.1222 23.8963 26.1221 25.9331 25.717C27.9699 25.3118 30.0811 25.5198 31.9997 26.3145C33.9183 27.1092 35.5582 28.455 36.7119 30.1817C37.8657 31.9085 38.4815 33.9385 38.4815 36.0152C38.4815 37.3941 38.2099 38.7595 37.6822 40.0334C37.1546 41.3073 36.3811 42.4648 35.4061 43.4398C34.4311 44.4149 33.2736 45.1883 31.9997 45.716C30.7258 46.2436 29.3604 46.5152 27.9815 46.5152ZM46.3915 11.1652L38.3182 28.4319C36.5012 25.9368 33.8393 24.187 30.8282 23.5086L29.2882 20.1952L33.9548 10.1619C34.051 9.95881 34.203 9.78732 34.3931 9.66749C34.5832 9.54766 34.8035 9.48444 35.0282 9.48523H45.3182C45.5141 9.48154 45.7076 9.52912 45.8795 9.62325C46.0514 9.71739 46.1957 9.85481 46.2982 10.0219C46.4098 10.1887 46.477 10.3813 46.4934 10.5814C46.5097 10.7815 46.4746 10.9825 46.3915 11.1652Z" fill="#05422C"/>
<path d="M28.1795 39.3867L30.5689 40.6421C30.6361 40.6778 30.7119 40.6939 30.7879 40.6886C30.8638 40.6832 30.9367 40.6567 30.9982 40.6119C31.0598 40.5672 31.1075 40.506 31.1359 40.4354C31.1644 40.3648 31.1725 40.2877 31.1592 40.2127L30.6925 37.5527C30.6817 37.4877 30.6868 37.421 30.7076 37.3584C30.7283 37.2957 30.764 37.2391 30.8115 37.1934L32.7435 35.3104C32.7993 35.2569 32.8387 35.1887 32.8572 35.1137C32.8758 35.0387 32.8726 34.9599 32.8482 34.8866C32.8238 34.8133 32.779 34.7484 32.7192 34.6996C32.6594 34.6507 32.5869 34.6197 32.5102 34.6104L29.8665 34.2277C29.8 34.2169 29.7372 34.19 29.6835 34.1493C29.6299 34.1086 29.5869 34.0555 29.5585 33.9944L28.3639 31.5747C28.3306 31.5062 28.2787 31.4485 28.2141 31.408C28.1495 31.3676 28.0749 31.3462 27.9987 31.3462C27.9225 31.3462 27.8479 31.3676 27.7833 31.408C27.7187 31.4485 27.6668 31.5062 27.6335 31.5747L26.4389 33.9944C26.4112 34.0555 26.3687 34.1088 26.3154 34.1496C26.2621 34.1903 26.1995 34.2171 26.1332 34.2277L23.4615 34.6151C23.3848 34.6244 23.3123 34.6553 23.2525 34.7042C23.1927 34.7531 23.1479 34.818 23.1235 34.8913C23.0991 34.9646 23.0959 35.0433 23.1145 35.1183C23.133 35.1934 23.1724 35.2616 23.2282 35.3151L25.1602 37.1981C25.2073 37.244 25.2425 37.3007 25.2629 37.3633C25.2832 37.4259 25.288 37.4925 25.2769 37.5574L24.8102 40.2174C24.7969 40.2923 24.805 40.3695 24.8334 40.4401C24.8619 40.5107 24.9096 40.5718 24.9712 40.6166C25.0327 40.6613 25.1056 40.6879 25.1815 40.6932C25.2574 40.6986 25.3333 40.6825 25.4005 40.6467L27.7899 39.3914C27.8491 39.3576 27.9159 39.3394 27.9841 39.3386C28.0523 39.3378 28.1195 39.3544 28.1795 39.3867Z" fill="#05422C"/>
</svg>
