<svg width="56" height="56" viewBox="0 0 56 56" fill="none" xmlns="http://www.w3.org/2000/svg">
<path d="M24.5 29.0325L19.9675 24.5L17.5 26.9675L24.5 33.9675L38.5 19.9675L36.0325 17.5L24.5 29.0325Z" fill="#05422C"/>
<path d="M28 52.5L17.192 46.7373C14.1108 45.098 11.5342 42.6507 9.73862 39.658C7.94304 36.6653 6.9963 33.2401 7.00001 29.75V7C7.00094 6.07203 7.36998 5.18233 8.02616 4.52615C8.68234 3.86997 9.57204 3.50093 10.5 3.5H45.5C46.428 3.50093 47.3177 3.86997 47.9739 4.52615C48.63 5.18233 48.9991 6.07203 49 7V29.75C49.0037 33.2401 48.057 36.6653 46.2614 39.658C44.4658 42.6507 41.8892 45.098 38.808 46.7373L28 52.5ZM10.5 7V29.75C10.4971 32.6057 11.2719 35.4082 12.7413 37.8568C14.2108 40.3054 16.3192 42.3076 18.8405 43.6485L28 48.5327L37.1595 43.6503C39.681 42.3092 41.7897 40.3067 43.2591 37.8578C44.7285 35.4089 45.5032 32.606 45.5 29.75V7H10.5Z" fill="#05422C"/>
</svg>
