<svg width="56" height="56" viewBox="0 0 56 56" fill="none" xmlns="http://www.w3.org/2000/svg">
<path d="M11.1998 2.7998C12.219 2.7998 13.1766 3.0714 13.9998 3.5502C14.8511 3.05871 15.8168 2.79995 16.7998 2.79995C17.7828 2.79994 18.7484 3.05868 19.5997 3.55017C20.451 4.04165 21.158 4.74857 21.6495 5.59985C22.141 6.45114 22.3998 7.41681 22.3998 8.3998V11.1998H23.7998C24.1711 11.1998 24.5272 11.3473 24.7898 11.6099C25.0523 11.8724 25.1998 12.2285 25.1998 12.5998V25.1998C25.1998 26.685 24.6098 28.1094 23.5596 29.1596C22.5094 30.2098 21.085 30.7998 19.5998 30.7998H8.3998C6.91459 30.7998 5.49021 30.2098 4.44001 29.1596C3.3898 28.1094 2.7998 26.685 2.7998 25.1998V12.5998C2.7998 12.2285 2.9473 11.8724 3.20986 11.6099C3.47241 11.3473 3.8285 11.1998 4.1998 11.1998H5.5998V8.3998C5.5998 6.91459 6.1898 5.49021 7.24001 4.44001C8.29021 3.3898 9.71459 2.7998 11.1998 2.7998ZM8.3998 11.1998H13.9998V8.3998C13.9998 7.6572 13.7048 6.94501 13.1797 6.41991C12.6546 5.8948 11.9424 5.5998 11.1998 5.5998C10.4572 5.5998 9.74501 5.8948 9.21991 6.41991C8.6948 6.94501 8.3998 7.6572 8.3998 8.3998V11.1998ZM16.7998 8.3998V11.1998H19.5998V8.3998C19.6001 7.9723 19.5026 7.55039 19.3146 7.16643C19.1266 6.78248 18.8532 6.44667 18.5153 6.18475C18.1774 5.92282 17.784 5.74175 17.3653 5.6554C16.9466 5.56905 16.5137 5.57973 16.0998 5.6866C16.5478 6.4902 16.7998 7.417 16.7998 8.3998ZM25.1998 8.6378V8.3998H34.2998C37.0074 8.3998 39.1998 10.595 39.1998 13.2998V16.7998H41.6694C42.4498 16.7998 43.2148 17.0173 43.8785 17.4278C44.5422 17.8383 45.0784 18.4256 45.427 19.1238L49.9574 28.1818C50.2493 28.7642 50.4017 29.4064 50.4026 30.0578V40.5998C50.4026 41.7137 49.9601 42.782 49.1725 43.5697C48.3848 44.3573 47.3165 44.7998 46.2026 44.7998H41.8626C41.5413 46.3822 40.6828 47.8049 39.4326 48.8267C38.1823 49.8486 36.6173 50.4068 35.0026 50.4068C33.3879 50.4068 31.8229 49.8486 30.5726 48.8267C29.3224 47.8049 28.4639 46.3822 28.1426 44.7998H25.0626C24.7413 46.3822 23.8828 47.8049 22.6326 48.8267C21.3823 49.8486 19.8173 50.4068 18.2026 50.4068C16.5879 50.4068 15.0229 49.8486 13.7726 48.8267C12.5224 47.8049 11.6639 46.3822 11.3426 44.7998H10.6174C9.31784 44.7998 8.07151 44.2836 7.15258 43.3646C6.23365 42.4457 5.7174 41.1994 5.7174 39.8998V33.163C6.5602 33.4458 7.4618 33.5998 8.3998 33.5998H8.5174V39.8998C8.5174 41.059 9.4582 41.9998 10.6174 41.9998H11.3426C11.6639 40.4174 12.5224 38.9947 13.7726 37.9729C15.0229 36.951 16.5879 36.3928 18.2026 36.3928C19.8173 36.3928 21.3823 36.951 22.6326 37.9729C23.8828 38.9947 24.7413 40.4174 25.0626 41.9998H28.1426C28.5136 40.1808 29.5919 38.5837 31.1405 37.5598C32.689 36.5358 34.5808 36.1689 36.3998 36.5398V13.2998C36.3998 12.7429 36.1786 12.2087 35.7847 11.8149C35.3909 11.4211 34.8568 11.1998 34.2998 11.1998H27.7618C27.5524 10.609 27.2137 10.0724 26.7704 9.62919C26.3272 9.18595 25.7906 8.84726 25.1998 8.6378ZM39.1998 37.7998C40.5438 38.8078 41.5154 40.2918 41.8598 41.9998H46.1998C46.5711 41.9998 46.9272 41.8523 47.1898 41.5898C47.4523 41.3272 47.5998 40.9711 47.5998 40.5998V30.7998H39.1998V37.7998ZM39.1998 27.9998H46.7374L42.9238 20.3726C42.8074 20.1404 42.6287 19.9451 42.4077 19.8086C42.1866 19.6721 41.932 19.5998 41.6722 19.5998H39.1998V27.9998ZM18.1998 39.1998C17.0859 39.1998 16.0176 39.6423 15.23 40.43C14.4423 41.2176 13.9998 42.2859 13.9998 43.3998C13.9998 44.5137 14.4423 45.582 15.23 46.3697C16.0176 47.1573 17.0859 47.5998 18.1998 47.5998C19.3137 47.5998 20.382 47.1573 21.1697 46.3697C21.9573 45.582 22.3998 44.5137 22.3998 43.3998C22.3998 42.2859 21.9573 41.2176 21.1697 40.43C20.382 39.6423 19.3137 39.1998 18.1998 39.1998ZM30.7998 43.3998C30.7998 43.9514 30.9084 44.4975 31.1195 45.0071C31.3306 45.5166 31.6399 45.9796 32.03 46.3697C32.42 46.7597 32.883 47.069 33.3925 47.2801C33.9021 47.4912 34.4483 47.5998 34.9998 47.5998C35.5514 47.5998 36.0975 47.4912 36.6071 47.2801C37.1166 47.069 37.5796 46.7597 37.9697 46.3697C38.3597 45.9796 38.669 45.5166 38.8801 45.0071C39.0912 44.4975 39.1998 43.9514 39.1998 43.3998C39.1998 42.2859 38.7573 41.2176 37.9697 40.43C37.182 39.6423 36.1137 39.1998 34.9998 39.1998C33.8859 39.1998 32.8176 39.6423 32.03 40.43C31.2423 41.2176 30.7998 42.2859 30.7998 43.3998Z" fill="#05422C"/>
</svg>
