<svg width="14" height="14" viewBox="0 0 14 14" fill="none" xmlns="http://www.w3.org/2000/svg">
<path d="M11.031 8.57104C11.031 9.32354 11.6493 9.93604 12.4018 9.93604C12.4018 12.1235 11.8535 12.6719 9.666 12.6719H4.19433C2.00683 12.6719 1.4585 12.1235 1.4585 9.93604V9.66771C2.211 9.66771 2.82933 9.04937 2.82933 8.29687C2.82933 7.54437 2.211 6.92604 1.4585 6.92604V6.65771C1.46433 4.47021 2.00683 3.92188 4.19433 3.92188H9.66016C11.8477 3.92188 12.396 4.47021 12.396 6.65771V7.20604C11.6435 7.20604 11.031 7.81271 11.031 8.57104Z" stroke="#05422C" stroke-linecap="round" stroke-linejoin="round"/>
<path d="M9.45631 3.92178H4.15381L5.86298 2.21262C7.25714 0.81845 7.95714 0.81845 9.35131 2.21262L9.70131 2.56262C9.33381 2.93012 9.24631 3.47262 9.45631 3.92178Z" stroke="#05422C" stroke-linecap="round" stroke-linejoin="round"/>
<path d="M5.7627 3.92188L5.7627 12.6719" stroke="#05422C" stroke-linecap="round" stroke-linejoin="round" stroke-dasharray="5 5"/>
</svg>
