<svg width="14" height="14" viewBox="0 0 14 14" fill="none" xmlns="http://www.w3.org/2000/svg">
<path d="M11.0305 8.57104C11.0305 9.32354 11.6488 9.93604 12.4013 9.93604C12.4013 12.1235 11.853 12.6719 9.66551 12.6719H4.19384C2.00634 12.6719 1.45801 12.1235 1.45801 9.93604V9.66771C2.21051 9.66771 2.82884 9.04937 2.82884 8.29687C2.82884 7.54437 2.21051 6.92604 1.45801 6.92604V6.65771C1.46384 4.47021 2.00634 3.92188 4.19384 3.92188H9.65968C11.8472 3.92188 12.3955 4.47021 12.3955 6.65771V7.20604C11.643 7.20604 11.0305 7.81271 11.0305 8.57104Z" stroke="white" stroke-linecap="round" stroke-linejoin="round"/>
<path d="M9.4568 3.92178H4.1543L5.86346 2.21262C7.25763 0.81845 7.95763 0.81845 9.3518 2.21262L9.7018 2.56262C9.3343 2.93012 9.2468 3.47262 9.4568 3.92178Z" stroke="white" stroke-linecap="round" stroke-linejoin="round"/>
<path d="M5.7627 3.92188L5.7627 12.6719" stroke="white" stroke-linecap="round" stroke-linejoin="round" stroke-dasharray="5 5"/>
</svg>
