<svg xmlns="http://www.w3.org/2000/svg" version="1.1" xmlns:xlink="http://www.w3.org/1999/xlink" xmlns:svgjs="http://svgjs.dev/svgjs" width="1000" height="123" viewBox="0 0 1000 123"><g transform="matrix(1,0,0,1,-0.6060453073053509,-0.15418932373814442)"><svg viewBox="0 0 396 49" data-background-color="#ffffff" preserveAspectRatio="xMidYMid meet" height="123" width="1000" xmlns="http://www.w3.org/2000/svg" xmlns:xlink="http://www.w3.org/1999/xlink"><g id="tight-bounds" transform="matrix(1,0,0,1,0.2399948923389843,0.06142555292194629)"><svg viewBox="0 0 395.52 48.87714802677832" height="48.87714802677832" width="395.52"><g><svg viewBox="0 0 450.3813248082735 55.656742215692034" height="48.87714802677832" width="395.52"><g transform="matrix(1,0,0,1,54.86132480827354,7.692067846018222)"><svg viewBox="0 0 395.52 40.27260652365559" height="40.27260652365559" width="395.52"><g id="textblocktransform"><svg viewBox="0 0 395.52 40.27260652365559" height="40.27260652365559" width="395.52" id="textblock"><g><svg viewBox="0 0 395.52 40.27260652365559" height="40.27260652365559" width="395.52"><g transform="matrix(1,0,0,1,0,0)"><svg width="395.52" viewBox="0.9500000476837158 -34.25 340.2699890136719 34.650001525878906" height="40.27260652365559" data-palette-color="#05422c"><path d="M32-33.7L20.65 0 12.15 0 0.95-33.7 9.25-33.7 13.3-20.25Q14.4-16.65 15.2-13.33 16-10 16.25-8.5L16.25-8.5 16.5-6.95Q17.3-12.15 19.75-20.25L19.75-20.25 23.8-33.7 32-33.7ZM44.4-33.7L44.4 0 36.7 0 36.7-33.7 44.4-33.7ZM73.85-33.7L73.85-27.5 65.65-27.5 65.65 0 57.9 0 57.9-27.5 49.65-27.5 49.65-33.7 73.85-33.7ZM88.79-14.3L88.79-14.3 88.44-13.1 96.54-13.1 96.19-14.3Q94.74-19.2 93.82-22.65 92.89-26.1 92.69-27.1L92.69-27.1 92.49-28.1Q92.09-25.35 88.79-14.3ZM86.59-6.9L84.54 0 76.49 0 87.74-33.7 97.44-33.7 108.69 0 100.44 0 98.39-6.9 86.59-6.9ZM121.09-13.05L120.04 0 112.34 0 115.24-33.7 123.69-33.7 128.39-21.5Q129.59-18.45 130.44-15.9 131.29-13.35 131.54-12.3L131.54-12.3 131.79-11.3Q132.59-14.6 135.29-21.5L135.29-21.5 140.04-33.7 148.49-33.7 151.99 0 144.29 0 143.04-13.05 142.39-22.9Q141.09-19.15 138.79-13.05L138.79-13.05 134.04-0.35 129.49-0.35 124.79-13.05Q123.64-16.15 122.84-18.6 122.04-21.05 121.79-22L121.79-22 121.54-22.9Q121.54-19.35 121.09-13.05L121.09-13.05ZM165.94-33.7L165.94 0 158.24 0 158.24-33.7 165.94-33.7ZM180.63-13.95L180.63 0 172.94 0 172.94-33.7 181.38-33.7 189.24-19.75Q190.88-16.8 192.11-14.23 193.34-11.65 193.69-10.6L193.69-10.6 194.09-9.5Q193.59-13.2 193.59-19.75L193.59-19.75 193.59-33.7 201.28-33.7 201.28 0 192.84 0 184.78-13.95Q183.19-16.65 181.96-19.28 180.74-21.9 180.28-23.15L180.28-23.15 179.88-24.4Q180.63-19.9 180.63-13.95L180.63-13.95ZM241.23-9.8L241.23-9.8Q241.23-5.25 237.88-2.43 234.53 0.4 228.98 0.4L228.98 0.4Q223.03 0.4 219.28-1.7L219.28-1.7 219.28-9.45Q223.83-6.15 228.98-6.15L228.98-6.15Q230.73-6.15 231.88-7.08 233.03-8 233.03-9.5L233.03-9.5Q233.03-10 232.88-10.45 232.73-10.9 232.33-11.3 231.93-11.7 231.56-11.98 231.18-12.25 230.46-12.63 229.73-13 229.23-13.25 228.73-13.5 227.75-13.95 226.78-14.4 226.18-14.65L226.18-14.65Q222.93-16.15 220.96-18.35 218.98-20.55 218.98-24.2L218.98-24.2Q218.98-28.55 222.18-31.23 225.38-33.9 231.03-33.9L231.03-33.9Q236.08-33.9 239.73-32.2L239.73-32.2 239.73-25Q235.68-27.35 231.33-27.35L231.33-27.35Q229.38-27.35 228.35-26.55 227.33-25.75 227.33-24.5 227.33-23.25 228.58-22.28 229.83-21.3 232.33-20.2L232.33-20.2Q233.88-19.5 234.91-18.98 235.93-18.45 237.25-17.53 238.58-16.6 239.36-15.58 240.13-14.55 240.68-13.05 241.23-11.55 241.23-9.8ZM273.78-33.7L273.78 0 266.03 0 266.03-13.45 253.68-13.45 253.68 0 245.98 0 245.98-33.7 253.68-33.7 253.68-20 266.03-20 266.03-33.7 273.78-33.7ZM311.83-16.95L311.83-16.95Q311.83-9.2 307.35-4.42 302.88 0.35 295.43 0.35L295.43 0.35Q287.93 0.35 283.48-4.4 279.03-9.15 279.03-16.95L279.03-16.95Q279.03-24.7 283.5-29.48 287.98-34.25 295.43-34.25L295.43-34.25Q302.93-34.25 307.38-29.5 311.83-24.75 311.83-16.95ZM289.48-24.48Q287.28-21.7 287.28-16.95 287.28-12.2 289.48-9.43 291.68-6.65 295.43-6.65 299.18-6.65 301.38-9.43 303.58-12.2 303.58-16.95 303.58-21.7 301.38-24.48 299.18-27.25 295.43-27.25 291.68-27.25 289.48-24.48ZM328.67-10.9L328.67-10.9 324.77-10.9 324.77 0 317.07 0 317.07-33.7 328.67-33.7Q334.27-33.7 337.75-30.55 341.22-27.4 341.22-22.55L341.22-22.55Q341.22-17 337.6-13.95 333.97-10.9 328.67-10.9ZM327.77-27.55L327.77-27.55 324.77-27.55 324.77-17 327.32-17Q333.42-17 333.42-22.55L333.42-22.55Q333.42-27.55 327.77-27.55Z" opacity="1" transform="matrix(1,0,0,1,0,0)" fill="#05422c" class="wordmark-text-0" data-fill-palette-color="primary" id="text-0"></path></svg></g></svg></g></svg></g></svg></g><g><svg viewBox="0 0 45.35392895059502 55.656742215692034" height="55.656742215692034" width="45.35392895059502"><g><svg xmlns="http://www.w3.org/2000/svg" xmlns:xlink="http://www.w3.org/1999/xlink" version="1.1" x="0" y="0" viewBox="5.052000522613525 2.565000295639038 21.895999908447266 26.869998931884766" enable-background="new 0 0 32 32" xml:space="preserve" height="55.656742215692034" width="45.35392895059502" class="icon-icon-0" data-fill-palette-color="accent" id="icon-0"><path d="M24.113 10.523c-0.452 0-0.834-0.453-0.834-0.99V8.512c1.499-0.165 2.673-1.42 2.673-2.957 0-1.648-1.346-2.99-3-2.99H9.048c-1.654 0-3 1.342-3 2.99 0 1.537 1.174 2.792 2.673 2.957v1.021c0 0.537-0.382 0.99-0.834 0.99-1.563 0-2.835 1.341-2.835 2.989v1.257 9.186 2.49c0 1.648 1.341 2.99 2.99 2.99h15.916c1.649 0 2.99-1.342 2.99-2.99v-2.49V14.77v-1.257C26.948 11.864 25.676 10.523 24.113 10.523zM8.048 5.555c0-0.546 0.449-0.99 1-0.99h13.904c0.551 0 1 0.444 1 0.99s-0.449 0.99-1 0.99H9.048C8.497 6.545 8.048 6.101 8.048 5.555zM24.948 26.445c0 0.546-0.444 0.99-0.99 0.99H8.042c-0.546 0-0.99-0.444-0.99-0.99v-2.49h17.896V26.445zM24.948 21.955H7.052V16.77h17.896V21.955zM24.948 14.77H7.052v-1.257c0-0.536 0.382-0.989 0.835-0.989 1.563 0 2.834-1.342 2.834-2.99V8.545h10.559v0.988c0 1.648 1.271 2.99 2.834 2.99 0.453 0 0.835 0.453 0.835 0.989V14.77z" fill="#05422c" data-fill-palette-color="accent"></path></svg></g></svg></g></svg></g><defs></defs></svg><rect width="395.52" height="48.87714802677832" fill="none" stroke="none" visibility="hidden"></rect></g></svg></g></svg>